<svg xmlns="http://www.w3.org/2000/svg" xmlns:xlink="http://www.w3.org/1999/xlink" width="500" zoomAndPan="magnify" viewBox="0 0 375 374.999991" height="500" preserveAspectRatio="xMidYMid meet" version="1.0"><defs><clipPath id="41057ead25"><path d="M 39.4375 81 L 335.6875 81 L 335.6875 301.679688 L 39.4375 301.679688 Z M 39.4375 81 " clip-rule="nonzero"/></clipPath></defs><g clip-path="url(#41057ead25)"><path fill="#242424" d="M 324.503906 173.78125 C 324.503906 223.125 303.730469 251.738281 335.503906 273.417969 L 335.503906 301.316406 C 296.523438 301.316406 264.921875 279.65625 264.921875 240.675781 L 264.921875 225.085938 C 277.75 227.402344 297.875 222.347656 304.785156 212.316406 C 305.542969 211.222656 305.164062 210.042969 303.878906 210.589844 C 294.292969 214.761719 275.8125 216.890625 256.914062 204.5625 C 253.5 202.078125 248.96875 200.625 243.640625 200.625 C 237.128906 200.625 232.03125 202.730469 228.617188 206.144531 C 224.972656 209.832031 222.949219 215.308594 222.949219 221.609375 L 222.949219 301.316406 L 152.050781 301.316406 L 152.050781 265.960938 C 152.050781 259.808594 149.921875 254.394531 146.214844 250.664062 L 146.234375 250.640625 C 142.714844 247.144531 137.511719 244.976562 131.066406 244.976562 C 124.449219 244.976562 119.160156 247.125 115.621094 250.640625 C 111.871094 254.351562 109.761719 259.785156 109.761719 265.960938 L 109.761719 301.316406 L 39.496094 301.316406 L 39.496094 173.78125 C 39.496094 148.222656 49.230469 125.152344 65.894531 108.546875 C 82.097656 92.410156 104.683594 82.527344 131.066406 82.527344 C 144.867188 82.527344 157.675781 85.625 169.054688 91.144531 C 171.351562 92.261719 173.582031 93.484375 175.753906 94.8125 C 155.96875 116.089844 153.207031 146.683594 189.449219 169.523438 C 174.257812 153.003906 156.855469 117.207031 186.265625 88.636719 C 199.960938 73.679688 213.617188 86.574219 224.71875 84.570312 C 230.851562 83.476562 237.128906 82.527344 243.617188 82.527344 C 295.683594 82.527344 324.503906 121.570312 324.503906 173.78125 Z M 324.503906 173.78125 " fill-opacity="1" fill-rule="evenodd"/></g></svg>